# Blender 3.4.1
# www.blender.org
mtllib gy2.mtl
o gy1
v 17.138706 -3.000000 5.033645
v -17.138706 -3.000000 5.033645
v -17.862806 -3.000000 -0.000000
v -17.862806 3.000000 -0.000000
v -0.000000 -3.000000 2.000000
v -1.901911 -3.000000 -0.618445
v -17.138706 -3.000000 -5.033645
v -17.138706 3.000000 -5.033645
v -1.175668 -3.000000 1.617782
v -1.901911 -3.000000 0.618445
v 15.027056 -3.000000 9.656940
v -15.027056 -3.000000 9.656940
v -17.138706 3.000000 5.033645
v 11.698543 -3.000000 13.498890
v -11.698543 -3.000000 13.498890
v -15.027056 3.000000 9.656940
v 7.419636 -3.000000 16.248928
v -7.419636 -3.000000 16.248928
v -11.698543 3.000000 13.498890
v 2.541262 -3.000000 17.680845
v -2.541262 -3.000000 17.680845
v -7.419636 3.000000 16.248928
v -2.541262 3.000000 17.680845
v 2.541262 3.000000 17.680845
v 7.419636 3.000000 16.248928
v 11.698543 3.000000 13.498890
v 15.027056 3.000000 9.656940
v 1.901911 -3.000000 0.618445
v 17.862806 -3.000000 0.000000
v 17.138706 3.000000 5.033645
v 1.175668 -3.000000 1.617782
v 17.138706 -3.000000 -5.033645
v 17.862806 3.000000 0.000000
v 0.000000 -3.000000 -2.000000
v 1.175668 -3.000000 -1.617782
v 1.901911 -3.000000 -0.618445
v -15.027056 -3.000000 -9.656940
v 15.027056 -3.000000 -9.656940
v 17.138706 3.000000 -5.033645
v -11.698543 -3.000000 -13.498890
v 11.698543 -3.000000 -13.498890
v 15.027056 3.000000 -9.656940
v -7.419636 -3.000000 -16.248928
v 7.419636 -3.000000 -16.248928
v 11.698543 3.000000 -13.498890
v -2.541262 -3.000000 -17.680845
v 2.541262 -3.000000 -17.680845
v 7.419636 3.000000 -16.248928
v 2.541262 3.000000 -17.680845
v -2.541262 3.000000 -17.680845
v -7.419636 3.000000 -16.248928
v -11.698543 3.000000 -13.498890
v -15.027056 3.000000 -9.656940
v -1.175668 -3.000000 -1.617782
v -0.000000 -19.400000 2.000000
v 1.175218 -19.400000 1.618041
v -1.175218 -19.400000 1.618041
v -1.902206 -19.400000 0.617459
v -1.902206 -19.400000 -0.617459
v -1.175218 -19.400000 -1.618041
v 0.000000 -19.400000 -2.000000
v 1.175218 -19.400000 -1.618041
v 1.902206 -19.400000 -0.617459
v 1.902206 -19.400000 0.617459
v 0.000000 3.000000 -2.000000
v -1.902065 3.000000 0.617828
v -1.175835 3.000000 -1.617782
v -1.902065 3.000000 -0.617828
v 1.902065 3.000000 -0.617828
v 1.175835 3.000000 -1.617782
v -0.000000 3.000000 2.000000
v 1.175835 3.000000 1.617782
v 1.902065 3.000000 0.617828
v -1.175835 3.000000 1.617782
v -0.000000 19.400000 2.000000
v -1.175668 19.400000 1.617782
v 1.175668 19.400000 1.617782
v 1.901911 19.400000 0.618445
v 1.901911 19.400000 -0.618445
v 1.175668 19.400000 -1.617782
v 0.000000 19.400000 -2.000000
v -1.175668 19.400000 -1.617782
v -1.901911 19.400000 -0.618445
v -1.901911 19.400000 0.618445
v 9.520386 3.000000 -2.825736
v 13.362799 3.000000 11.577915
v -17.500755 3.000000 -2.516823
v -17.500755 3.000000 2.516823
v -9.231223 3.000000 2.741932
v -17.138706 -0.113869 5.033645
v -17.688652 3.000000 1.210647
v -5.566644 3.000000 1.679880
v -9.157270 3.000000 3.325713
v -16.082882 0.000000 7.345293
v -17.138706 -1.556934 5.033645
v -17.775730 3.000000 0.605323
v 17.500755 3.000000 2.516823
v 17.862806 0.000000 0.000000
v 0.362049 3.000000 2.516823
v 17.319731 3.000000 3.775234
v 17.500755 0.000000 2.516823
v 0.000000 3.000000 5.033645
v 17.681782 3.000000 1.258411
v 8.840890 3.000000 3.146028
v 17.591269 1.500000 1.887617
v 16.082882 0.000000 -7.345293
v 17.500755 3.000000 -2.516823
v 5.711226 3.000000 -1.721782
v 9.157270 3.000000 -3.325713
v 0.000000 -3.000000 17.680845
v -17.862806 -1.000000 -0.000000
v -17.862806 1.000000 -0.000000
v -17.380072 3.000000 -3.355763
v -17.259388 3.000000 -4.194704
v -6.195636 3.000000 -1.677882
v 5.471536 3.000000 -3.355763
vn -0.0000 -1.0000 -0.0000
vn -0.9898 -0.0000 0.1424
vn -0.9898 -0.0000 -0.1424
vn -0.9096 -0.0000 0.4155
vn -0.7558 -0.0000 0.6548
vn -0.5407 -0.0000 0.8412
vn -0.2816 -0.0000 0.9595
vn -0.0000 -0.0000 1.0000
vn 0.2816 -0.0000 0.9595
vn 0.5407 -0.0000 0.8412
vn 0.7558 -0.0000 0.6548
vn 0.9096 -0.0000 0.4155
vn 0.9898 -0.0000 0.1424
vn 0.9898 -0.0000 -0.1424
vn 0.9096 -0.0000 -0.4155
vn 0.7558 -0.0000 -0.6548
vn 0.5407 -0.0000 -0.8412
vn 0.2816 -0.0000 -0.9595
vn -0.0000 -0.0000 -1.0000
vn -0.2816 -0.0000 -0.9595
vn -0.5407 -0.0000 -0.8412
vn -0.7558 -0.0000 -0.6548
vn -0.9096 -0.0000 -0.4155
vn -0.3092 -0.0000 0.9510
vn 0.3092 -0.0000 0.9510
vn 0.3091 -0.0000 0.9510
vn -0.8089 -0.0000 0.5879
vn -0.3091 -0.0000 0.9510
vn -1.0000 -0.0000 -0.0000
vn -0.8090 -0.0000 0.5878
vn -0.8089 -0.0000 -0.5879
vn -0.3092 -0.0000 -0.9510
vn -0.8090 -0.0000 -0.5878
vn 0.3092 -0.0000 -0.9510
vn -0.3091 -0.0000 -0.9510
vn 0.8089 -0.0000 -0.5879
vn 0.3091 -0.0000 -0.9510
vn 1.0000 -0.0000 -0.0000
vn 0.8090 -0.0000 -0.5878
vn 0.8089 -0.0000 0.5879
vn 0.8090 -0.0000 0.5878
vn -0.0000 1.0000 -0.0000
vn 0.8091 -0.0000 0.5876
vn 0.8091 -0.0000 -0.5876
vn -0.8091 -0.0000 -0.5876
vn -0.8091 -0.0000 0.5876
s 0
usemtl Material.001
f 1//1 2//1 3//1
f 4//2 112//2 111//2 3//2 2//2
f 5//1 1//1 3//1
f 6//1 3//1 7//1
f 8//3 7//3 3//3
f 9//1 5//1 3//1
f 10//1 9//1 3//1
f 6//1 10//1 3//1
f 113//3 112//3 4//3 87//3
f 11//1 12//1 2//1
f 94//4 95//4 2//4 12//4
f 1//1 11//1 2//1
f 95//2 96//2 4//2 2//2
f 14//1 15//1 12//1
f 16//5 12//5 15//5
f 11//1 14//1 12//1
f 13//4 94//4 12//4 16//4
f 17//1 18//1 15//1
f 19//6 15//6 18//6
f 14//1 17//1 15//1
f 16//5 15//5 19//5
f 20//1 110//1 21//1 18//1
f 22//7 18//7 21//7
f 17//1 20//1 18//1
f 19//6 18//6 22//6
f 23//8 21//8 110//8 20//8
f 22//7 21//7 23//7
f 24//9 20//9 17//9
f 23//8 20//8 24//8
f 25//10 17//10 14//10
f 24//9 17//9 25//9
f 26//11 14//11 11//11
f 25//10 14//10 26//10
f 27//12 11//12 1//12
f 26//11 11//11 27//11 86//11
f 28//1 29//1 1//1
f 30//13 1//13 29//13 101//13
f 31//1 1//1 5//1
f 31//1 28//1 1//1
f 27//12 1//12 30//12
f 7//1 32//1 29//1
f 33//14 98//14 29//14 32//14
f 34//1 7//1 29//1
f 35//1 34//1 29//1
f 36//1 35//1 29//1
f 28//1 36//1 29//1
f 105//13 98//13 33//13 103//13
f 37//1 38//1 32//1
f 39//15 32//15 38//15 106//15
f 7//1 37//1 32//1
f 33//14 32//14 39//14 107//14
f 40//1 41//1 38//1
f 42//16 38//16 41//16
f 37//1 40//1 38//1
f 39//15 106//15 38//15 42//15
f 43//1 44//1 41//1
f 45//17 41//17 44//17
f 40//1 43//1 41//1
f 42//16 41//16 45//16
f 46//1 47//1 44//1
f 48//18 44//18 47//18
f 43//1 46//1 44//1
f 45//17 44//17 48//17
f 49//19 47//19 46//19
f 48//18 47//18 49//18
f 50//20 46//20 43//20
f 49//19 46//19 50//19
f 51//21 43//21 40//21
f 50//20 43//20 51//20
f 52//22 40//22 37//22
f 51//21 40//21 52//21
f 53//23 37//23 7//23
f 52//22 37//22 53//22
f 54//1 6//1 7//1
f 34//1 54//1 7//1
f 53//23 7//23 8//23
f 55//24 5//24 9//24
f 56//25 31//25 5//25
f 56//26 5//26 55//26
f 57//27 9//27 10//27
f 57//28 55//28 9//28
f 58//29 10//29 6//29
f 57//30 10//30 58//30
f 59//31 6//31 54//31
f 58//29 6//29 59//29
f 60//32 54//32 34//32
f 59//33 54//33 60//33
f 61//34 34//34 35//34
f 60//35 34//35 61//35
f 62//36 35//36 36//36
f 61//37 35//37 62//37
f 63//38 36//38 28//38
f 62//39 36//39 63//39
f 64//40 28//40 31//40
f 63//38 28//38 64//38
f 64//41 31//41 56//41
f 115//42 113//42 87//42 4//42
f 65//42 39//42 116//42 115//42 4//42
f 89//42 91//42 88//42 13//42
f 67//42 65//42 4//42
f 68//42 67//42 4//42
f 66//42 68//42 4//42
f 42//42 53//42 8//42
f 39//42 42//42 8//42
f 45//42 52//42 53//42
f 42//42 45//42 53//42
f 48//42 51//42 52//42
f 45//42 48//42 52//42
f 49//42 50//42 51//42
f 48//42 49//42 51//42
f 108//42 107//42 39//42 85//42
f 109//42 108//42 85//42 39//42
f 65//42 70//42 109//42 39//42
f 104//42 100//42 97//42 103//42
f 71//42 13//42 99//42 33//42
f 72//42 71//42 33//42
f 73//42 72//42 33//42
f 69//42 73//42 33//42
f 16//42 27//42 30//42
f 13//42 16//42 30//42 102//42
f 19//42 26//42 86//42 27//42
f 16//42 19//42 27//42
f 22//42 25//42 26//42
f 19//42 22//42 26//42
f 23//42 24//42 25//42
f 22//42 23//42 25//42
f 74//42 93//42 13//42 71//42
f 93//42 92//42 89//42 13//42
f 75//26 71//26 72//26
f 76//28 74//28 71//28
f 76//24 71//24 75//24
f 77//43 72//43 73//43
f 77//25 75//25 72//25
f 78//38 73//38 69//38
f 77//40 73//40 78//40
f 79//44 69//44 70//44
f 78//38 69//38 79//38
f 80//37 70//37 65//37
f 79//36 70//36 80//36
f 81//35 65//35 67//35
f 80//34 65//34 81//34
f 82//45 67//45 68//45
f 81//32 67//32 82//32
f 83//29 68//29 66//29
f 82//31 68//31 83//31
f 84//46 66//46 74//46
f 83//29 66//29 84//29
f 84//27 74//27 76//27
f 82//42 76//42 75//42
f 81//42 82//42 75//42
f 77//42 81//42 75//42
f 83//42 84//42 76//42
f 82//42 83//42 76//42
f 77//42 80//42 81//42
f 78//42 79//42 80//42
f 77//42 78//42 80//42
f 62//1 56//1 55//1
f 61//1 62//1 55//1
f 57//1 61//1 55//1
f 63//1 64//1 56//1
f 62//1 63//1 56//1
f 57//1 60//1 61//1
f 58//1 59//1 60//1
f 57//1 58//1 60//1
f 92//42 96//42 91//42 89//42
f 13//2 88//2 91//2 90//2
f 66//42 4//42 96//42 92//42
f 74//42 66//42 92//42 93//42
f 90//2 91//2 96//2 95//2
f 13//4 90//4 95//4 94//4
f 102//42 30//42 100//42 104//42
f 101//13 29//13 98//13 105//13
f 30//13 101//13 105//13 100//13
f 13//42 102//42 104//42 99//42
f 99//42 104//42 103//42 33//42
f 100//13 105//13 103//13 97//13
f 70//42 69//42 108//42 109//42
f 69//42 33//42 107//42 108//42
f 39//42 8//42 114//42 116//42
f 8//3 3//3 111//3 114//3
usemtl Material.002
f 116//42 114//42 113//42 115//42
f 114//3 111//3 112//3 113//3
